#
# Track frame offsets:
#       150
#       14351
#       43497
#       74928
#       101226
#       130446
#
# Disc length: 2234 seconds
#
# Submitted via: XXXXXX
#
#blues,classical,country,data,folk,jazz,newage,reggae,rock,soundtrack,misc
#CATEGORY=none
DISCID=leJHbz5uA48O3oj5RgwD3Bh4RWM-
DTITLE=Metallica / Hardwired... Self‐Destruct
DYEAR=
DGENRE=
TTITLE0=Hardwired
TTITLE1=Atlas, Rise!
TTITLE2=Now That We’re Dead
TTITLE3=Moth Into Flame
TTITLE4=Dream No More
TTITLE5=Halo On Fire
EXTD=
EXTT0=
EXTT1=
EXTT2=
EXTT3=
EXTT4=
EXTT5=
PLAYORDER=
.
